<svg width="1000" height="1000" viewBox="0 0 1000 1000" fill="none" xmlns="http://www.w3.org/2000/svg">
<path fill-rule="evenodd" clip-rule="evenodd" d="M999.639 499.82L499.82 0L0 499.82L499.82 999.639L999.639 499.82ZM867.871 426.36L499.819 58.3077L131.766 426.36L361.799 304.138L407.805 469.88H453.812L453.812 304.138L476.815 469.88H522.822L545.825 304.138V469.88H591.832L637.838 304.138L867.871 426.36ZM131.766 573.282L499.819 941.335L867.871 573.282L637.838 695.504L591.832 529.763H545.825L545.825 695.504L522.822 529.763H476.815L453.812 695.504V529.763L407.805 529.763L361.799 695.504L131.766 573.282Z" fill="black"/>
</svg>
